# xmcd CD database file
#
# Track frame offsets:
#	150
#	17255
#	35480
#	62496
#	86262
#	107602
#	131099
#	148002
#	168327
#	186665
#
# Disc length: 2865 seconds
#
# Revision: 1
# Processed by: cddbd v1.5.2PL0 Copyright (c) Steve Scherf et al.
# Submitted via: CDex 1.70beta2
#
DISCID=7f0b2f0a
DTITLE=Terri Walker - I Am
DYEAR=2006
DGENRE=
TTITLE0=I Am
TTITLE1=No Matter Whatever
TTITLE2=Addicted (Feat. TY)
TTITLE3=Forever and a Day
TTITLE4=Alright With Me
TTITLE5=The Truth
TTITLE6=I Don't Care
TTITLE7=Side By Side
TTITLE8=Outta My System
TTITLE9=Imperative
EXTD=YEAR: 2006
EXTT0=
EXTT1=
EXTT2=
EXTT3=
EXTT4=
EXTT5=
EXTT6=
EXTT7=
EXTT8=
EXTT9=
PLAYORDER=
